<svg width="24" height="24" viewBox="0 0 24 24" fill="none" xmlns="http://www.w3.org/2000/svg">
<circle cx="12" cy="12" r="10" fill="#D5FEB8"/>
<path d="M9.11339 11.295C9.06273 11.3457 9.00258 11.386 8.93637 11.4134C8.87016 11.4409 8.79918 11.455 8.72751 11.455C8.65583 11.455 8.58486 11.4409 8.51864 11.4134C8.45243 11.386 8.39228 11.3457 8.34163 11.295L6.15996 9.11333C6.10925 9.06267 6.06902 9.00252 6.04158 8.9363C6.01413 8.87009 6 8.79912 6 8.72744C6 8.65576 6.01413 8.58479 6.04158 8.51857C6.06902 8.45236 6.10925 8.3922 6.15996 8.34155L8.34163 6.15984C8.3923 6.10916 8.45246 6.06897 8.51867 6.04154C8.58488 6.01412 8.65584 6 8.72751 6C8.79917 6 8.87014 6.01412 8.93635 6.04154C9.00255 6.06897 9.06271 6.10916 9.11339 6.15984C9.21573 6.26218 9.27323 6.40099 9.27323 6.54573C9.27323 6.6174 9.25911 6.68836 9.23169 6.75457C9.20426 6.82078 9.16406 6.88094 9.11339 6.93162L7.86234 8.18201L17.4542 8.18201C17.5988 8.18201 17.7375 8.23948 17.8398 8.34176C17.9421 8.44405 17.9996 8.58278 17.9996 8.72744C17.9996 8.87209 17.9421 9.01083 17.8398 9.11311C17.7375 9.2154 17.5988 9.27287 17.4542 9.27287L7.86234 9.27286L9.11339 10.5233C9.1641 10.5739 9.20433 10.6341 9.23178 10.7003C9.25922 10.7665 9.27335 10.8375 9.27335 10.9091C9.27335 10.9808 9.25922 11.0518 9.23178 11.118C9.20433 11.1842 9.1641 11.2444 9.11339 11.295ZM15.6584 17.8402L17.84 15.6585C17.8907 15.6078 17.931 15.5476 17.9584 15.4814C17.9859 15.4152 18 15.3442 18 15.2726C18 15.2009 17.9859 15.1299 17.9584 15.0637C17.931 14.9975 17.8907 14.9373 17.84 14.8867L15.6584 12.705C15.556 12.6026 15.4172 12.5451 15.2725 12.5451C15.1278 12.5451 14.989 12.6026 14.8866 12.705C14.7843 12.8073 14.7268 12.9461 14.7268 13.0909C14.7268 13.2356 14.7843 13.3744 14.8866 13.4767L16.1377 14.7271L6.54585 14.7271C6.40119 14.7271 6.26246 14.7846 6.16018 14.8869C6.05789 14.9892 6.00043 15.1279 6.00043 15.2726C6.00043 15.4172 6.05789 15.5559 6.16018 15.6582C6.26246 15.7605 6.40119 15.818 6.54585 15.818L16.1377 15.818L14.8866 17.0684C14.7843 17.1707 14.7268 17.3095 14.7268 17.4543C14.7268 17.599 14.7843 17.7378 14.8866 17.8402C14.989 17.9425 15.1278 18 15.2725 18C15.4172 18 15.556 17.9425 15.6584 17.8402Z" fill="#009D2C"/>
</svg>
